<?xml version="1.0" standalone="no"?>
<!DOCTYPE svg PUBLIC "-//W3C//DTD SVG 20010904//EN"
 "http://www.w3.org/TR/2001/REC-SVG-20010904/DTD/svg10.dtd">
<svg version="1.0" xmlns="http://www.w3.org/2000/svg"
 width="334.000000pt" height="334.000000pt" viewBox="0 0 334.000000 334.000000"
 preserveAspectRatio="xMidYMid meet">
<metadata>
Created by potrace 1.11, written by Peter Selinger 2001-2013
</metadata>
<g transform="translate(0.000000,334.000000) scale(0.100000,-0.100000)"
fill="#000000" stroke="none">
<path d="M1619 2553 c-10 -2 -70 -144 -174 -411 -362 -933 -367 -946 -428
-982 -51 -30 -57 -38 -57 -80 l0 -40 200 0 200 0 -4 23 c-16 77 -15 76 -50 83
-19 3 -44 15 -56 26 -20 19 -22 28 -17 82 3 36 21 103 45 166 l40 105 289 2
288 3 59 -138 c32 -75 61 -155 63 -177 5 -37 2 -42 -21 -53 -15 -7 -35 -12
-46 -12 -30 0 -50 -28 -50 -71 l0 -39 250 0 250 0 0 36 c0 41 -15 74 -34 74
-29 0 -66 44 -108 127 -25 49 -162 357 -304 685 l-259 598 -30 -1 c-16 -1 -37
-3 -46 -6z m121 -658 c56 -132 104 -243 107 -247 2 -5 -106 -8 -240 -8 l-245
0 60 153 c32 83 81 215 109 292 27 77 52 147 55 155 4 9 15 -9 28 -45 13 -33
69 -168 126 -300z"/>
</g>
</svg>
